<?xml version="1.0" encoding="UTF-8" standalone="no"?>
<!DOCTYPE svg PUBLIC "-//W3C//DTD SVG 1.1//EN" "http://www.w3.org/Graphics/SVG/1.1/DTD/svg11.dtd">
<svg width="100%" height="100%" viewBox="0 0 299 542" version="1.1" xmlns="http://www.w3.org/2000/svg" xmlns:xlink="http://www.w3.org/1999/xlink" xml:space="preserve" xmlns:serif="http://www.serif.com/" style="fill-rule:evenodd;clip-rule:evenodd;stroke-linejoin:round;stroke-miterlimit:2;">
    <g transform="matrix(1,0,0,1,-389,-645)">
        <g transform="matrix(0.966328,0,0,0.966328,-394.783,-306.483)">
            <g id="Extracted-curves-v3" serif:id="Extracted curves v3">
                <g>
                    <g transform="matrix(1.03484,0,0,1.03484,477.788,223.512)">
                        <path d="M342.716,816.747C344.034,810.963 345.555,805.781 347.294,801.28C384.607,704.729 621.076,743.232 621.076,743.232L621.076,816.3C621.076,816.3 609.516,816.104 591.972,816.201L593.205,756.498C593.205,756.498 401.485,730.701 342.716,816.747ZM409.073,865.044C404.412,891.274 414.51,923.7 435.041,935.831C465.597,953.884 615.744,931.316 615.744,931.316L615.744,1004.38C615.744,1004.38 606.244,1003.25 591.611,1002.23L594.514,955.147C594.514,955.147 462.759,971.27 433.898,954.466C409.157,940.061 394.04,891.588 409.073,865.044ZM436.241,1036.94C415.77,1090.44 442.582,1249.61 442.582,1249.61L418.008,1249.61C410.63,1197 397.636,1082.98 418.348,1051.71C422.197,1045.9 428.41,1041.03 436.241,1036.94Z" style="fill:rgb(0,251,255);fill-rule:nonzero;"/>
                    </g>
                    <g transform="matrix(1.03484,0,0,1.03484,477.788,223.512)">
                        <path d="M418.008,1249.61L364.843,1249.61C364.843,1249.61 317.812,925.974 342.716,816.747C401.485,730.701 593.205,756.498 593.205,756.498L591.972,816.201C543.393,816.469 448.935,818.985 426.956,834.141C417.142,840.909 411.348,852.238 409.073,865.044C394.04,891.588 409.157,940.061 433.898,954.466C462.759,971.27 594.514,955.147 594.514,955.147L591.611,1002.23C548.897,999.259 462.454,997.323 440.958,1027.77C439.163,1030.31 437.598,1033.39 436.241,1036.94C428.41,1041.03 422.197,1045.9 418.348,1051.71C397.636,1082.98 410.63,1197 418.008,1249.61Z" style="fill:rgb(85,0,255);"/>
                    </g>
                    <g transform="matrix(1.03484,0,0,1.03484,477.788,223.512)">
                        <path d="M418.008,1249.61C420.319,1266.1 422.078,1276.55 422.078,1276.55L344.339,1276.55C344.339,1276.55 308.473,945.026 328.203,851.108C330.95,838.033 335.952,826.649 342.716,816.747C317.812,925.974 364.843,1249.61 364.843,1249.61L418.008,1249.61ZM591.972,816.201L591.618,833.329C591.618,833.329 449.105,833.235 419.188,853.865C414.917,856.811 411.577,860.623 409.073,865.044C411.348,852.238 417.142,840.909 426.956,834.141C448.935,818.985 543.393,816.469 591.972,816.201ZM591.611,1002.23L590.743,1016.32C590.743,1016.32 483.738,1012.14 436.241,1036.94C437.598,1033.39 439.163,1030.31 440.958,1027.77C462.454,997.323 548.897,999.259 591.611,1002.23Z" style="fill:rgb(229,0,255);fill-rule:nonzero;"/>
                    </g>
                </g>
            </g>
        </g>
    </g>
</svg>
